<svg width="312" height="170" viewBox="0 0 312 170" fill="none" xmlns="http://www.w3.org/2000/svg">
    <rect x="0.5" y="0.5" width="311" height="169" rx="11.5" stroke="#D5D8E2" stroke-dasharray="5 5"/>
    <path fill-rule="evenodd" clip-rule="evenodd" d="M158.637 42.666C158.694 42.666 158.75 42.6709 158.805 42.6802L158.985 42.6812C159.257 42.6812 159.517 42.7919 159.707 42.9879L166.461 50.0239C166.639 50.2092 166.739 50.4585 166.739 50.7159V62.9692C166.76 66.3145 164.152 69.0332 160.801 69.1532H149.948C146.694 69.0833 144.085 66.4541 144.004 63.2335L144.004 48.6532C144.083 45.3452 146.813 42.6812 150.096 42.6812L158.468 42.6802C158.523 42.6709 158.579 42.666 158.637 42.666ZM157.636 44.6807L150.1 44.6812C147.891 44.6812 146.056 46.4705 146.004 48.6772V62.9692C145.956 65.2372 147.743 67.1039 149.989 67.1532H160.767C162.992 67.0732 164.753 65.2372 164.739 62.9759L164.739 51.9767L162.061 51.978C159.619 51.9713 157.637 49.982 157.637 47.5447L157.636 44.6807ZM154.858 52.2112C155.134 52.2112 155.384 52.3232 155.565 52.5042L155.566 52.5051L158.694 55.6464C159.084 56.0384 159.082 56.6704 158.692 57.0597C158.3 57.4491 157.666 57.4491 157.277 57.0571L155.857 55.6313L155.858 61.2659C155.858 61.8179 155.41 62.2659 154.858 62.2659C154.306 62.2659 153.858 61.8179 153.858 61.2659L153.857 55.6313L152.44 57.0571C152.245 57.2544 151.988 57.3517 151.732 57.3517C151.477 57.3517 151.221 57.2544 151.026 57.0597C150.636 56.6704 150.633 56.0384 151.024 55.6464L154.149 52.5051L154.193 52.464C154.213 52.4468 154.233 52.4304 154.253 52.4147L154.149 52.5051C154.186 52.4678 154.226 52.4341 154.268 52.4042C154.433 52.2828 154.637 52.2112 154.858 52.2112ZM159.636 45.802L159.637 47.5447C159.637 48.8833 160.725 49.974 162.063 49.978L163.643 49.9767L159.636 45.802Z" fill="white"/>
    <path d="M28.4545 102H25.0043V91.8182H28.5241C29.535 91.8182 30.4034 92.022 31.1293 92.4297C31.8584 92.834 32.4186 93.4157 32.8097 94.1747C33.2008 94.9337 33.3963 95.8419 33.3963 96.8991C33.3963 97.9598 33.1991 98.8712 32.8047 99.6335C32.4136 100.396 31.8485 100.981 31.1094 101.388C30.3736 101.796 29.4886 102 28.4545 102ZM26.8487 100.404H28.3651C29.0743 100.404 29.666 100.275 30.1399 100.016C30.6139 99.7545 30.9702 99.3651 31.2088 98.848C31.4474 98.3277 31.5668 97.678 31.5668 96.8991C31.5668 96.1203 31.4474 95.474 31.2088 94.9602C30.9702 94.4432 30.6172 94.0571 30.1499 93.8018C29.6858 93.5433 29.1091 93.4141 28.4197 93.4141H26.8487V100.404ZM35.0692 102V94.3636H36.8143V95.6364H36.8938C37.033 95.1955 37.2717 94.8558 37.6097 94.6172C37.9511 94.3752 38.3406 94.2543 38.7781 94.2543C38.8775 94.2543 38.9885 94.2592 39.1112 94.2692C39.2371 94.2758 39.3415 94.2874 39.4244 94.304V95.9595C39.3481 95.933 39.2272 95.9098 39.0614 95.8899C38.899 95.8667 38.7416 95.8551 38.5891 95.8551C38.261 95.8551 37.966 95.9264 37.7042 96.0689C37.4457 96.2081 37.2418 96.402 37.0927 96.6506C36.9435 96.8991 36.869 97.1858 36.869 97.5107V102H35.0692ZM42.6808 102.154C42.1969 102.154 41.761 102.068 41.3732 101.896C40.9888 101.72 40.6838 101.461 40.4585 101.12C40.2364 100.779 40.1254 100.358 40.1254 99.8572C40.1254 99.4264 40.2049 99.0701 40.364 98.7884C40.5231 98.5066 40.7402 98.2812 41.0153 98.1122C41.2904 97.9432 41.6003 97.8156 41.945 97.7294C42.293 97.6399 42.6526 97.5753 43.0238 97.5355C43.4712 97.4891 43.8342 97.4477 44.1126 97.4112C44.391 97.3714 44.5932 97.3118 44.7191 97.2322C44.8484 97.1494 44.913 97.0218 44.913 96.8494V96.8196C44.913 96.4451 44.802 96.1551 44.5799 95.9496C44.3578 95.7441 44.038 95.6413 43.6204 95.6413C43.1796 95.6413 42.8299 95.7375 42.5714 95.9297C42.3162 96.1219 42.1438 96.349 42.0543 96.6108L40.3739 96.3722C40.5065 95.9081 40.7253 95.5204 41.0302 95.2088C41.3351 94.8939 41.708 94.6586 42.1488 94.5028C42.5896 94.3438 43.0768 94.2642 43.6104 94.2642C43.9783 94.2642 44.3446 94.3073 44.7092 94.3935C45.0737 94.4796 45.4068 94.6222 45.7085 94.821C46.0101 95.0166 46.252 95.2834 46.4343 95.6214C46.6199 95.9595 46.7127 96.3821 46.7127 96.8892V102H44.9826V100.951H44.9229C44.8136 101.163 44.6594 101.362 44.4606 101.548C44.265 101.73 44.0181 101.877 43.7198 101.99C43.4248 102.099 43.0785 102.154 42.6808 102.154ZM43.1481 100.832C43.5094 100.832 43.8226 100.76 44.0877 100.618C44.3529 100.472 44.5567 100.28 44.6992 100.041C44.8451 99.8026 44.918 99.5424 44.918 99.2607V98.3608C44.8616 98.4072 44.7655 98.4503 44.6296 98.4901C44.497 98.5298 44.3479 98.5646 44.1822 98.5945C44.0165 98.6243 43.8524 98.6508 43.69 98.674C43.5276 98.6972 43.3867 98.7171 43.2674 98.7337C42.9989 98.7701 42.7586 98.8298 42.5465 98.9126C42.3344 98.9955 42.167 99.1115 42.0444 99.2607C41.9218 99.4065 41.8604 99.5954 41.8604 99.8274C41.8604 100.159 41.9814 100.409 42.2234 100.578C42.4653 100.747 42.7736 100.832 43.1481 100.832ZM51.8434 105.023C51.1971 105.023 50.6419 104.935 50.1779 104.759C49.7139 104.587 49.341 104.355 49.0593 104.063C48.7776 103.772 48.582 103.448 48.4727 103.094L50.0934 102.701C50.1663 102.85 50.2724 102.998 50.4116 103.143C50.5508 103.293 50.738 103.415 50.9734 103.511C51.212 103.611 51.512 103.661 51.8732 103.661C52.3836 103.661 52.8062 103.536 53.141 103.288C53.4757 103.042 53.6431 102.638 53.6431 102.075V100.628H53.5536C53.4608 100.813 53.3249 101.004 53.146 101.2C52.9703 101.395 52.7366 101.559 52.445 101.692C52.1566 101.824 51.7937 101.891 51.3562 101.891C50.7695 101.891 50.2376 101.753 49.7603 101.478C49.2863 101.2 48.9085 100.785 48.6268 100.235C48.3484 99.6816 48.2092 98.9889 48.2092 98.157C48.2092 97.3184 48.3484 96.6108 48.6268 96.0341C48.9085 95.4541 49.288 95.0149 49.7653 94.7166C50.2425 94.415 50.7745 94.2642 51.3612 94.2642C51.8086 94.2642 52.1765 94.3404 52.4648 94.4929C52.7565 94.642 52.9885 94.8227 53.1609 95.0348C53.3332 95.2436 53.4641 95.4408 53.5536 95.6264H53.6531V94.3636H55.4279V102.124C55.4279 102.777 55.2721 103.317 54.9606 103.745C54.649 104.173 54.2231 104.492 53.6829 104.705C53.1426 104.917 52.5295 105.023 51.8434 105.023ZM51.8583 100.479C52.2395 100.479 52.5643 100.386 52.8327 100.2C53.1012 100.015 53.305 99.7479 53.4442 99.3999C53.5835 99.0518 53.6531 98.6342 53.6531 98.147C53.6531 97.6664 53.5835 97.2455 53.4442 96.8842C53.3084 96.523 53.1062 96.2429 52.8377 96.044C52.5726 95.8419 52.2461 95.7408 51.8583 95.7408C51.4573 95.7408 51.1225 95.8452 50.854 96.054C50.5856 96.2628 50.3834 96.5495 50.2475 96.9141C50.1116 97.2753 50.0437 97.6863 50.0437 98.147C50.0437 98.6143 50.1116 99.0237 50.2475 99.375C50.3867 99.723 50.5906 99.9948 50.859 100.19C51.1308 100.383 51.4639 100.479 51.8583 100.479ZM63.7876 102.149C63.0916 102.149 62.4934 102.023 61.9929 101.771C61.4924 101.519 61.1063 101.18 60.8345 100.752C60.5661 100.321 60.4318 99.8357 60.4318 99.2955C60.4318 98.8878 60.5147 98.5265 60.6804 98.2116C60.8494 97.8968 61.0814 97.6051 61.3764 97.3366C61.6747 97.0682 62.0194 96.8014 62.4105 96.5362L64.2152 95.3082C64.4804 95.1359 64.6809 94.9536 64.8168 94.7614C64.956 94.5691 65.0256 94.3437 65.0256 94.0852C65.0256 93.8665 64.9328 93.6593 64.7472 93.4638C64.5649 93.2682 64.313 93.1705 63.9915 93.1705C63.776 93.1705 63.5855 93.2218 63.4197 93.3246C63.2573 93.424 63.1297 93.5549 63.0369 93.7173C62.9474 93.8797 62.9027 94.0521 62.9027 94.2344C62.9027 94.4564 62.964 94.6818 63.0866 94.9105C63.2126 95.1392 63.375 95.3762 63.5739 95.6214C63.776 95.8667 63.9915 96.1269 64.2202 96.402L68.9979 102H67.049L63.0817 97.456C62.7867 97.1113 62.5017 96.7715 62.2266 96.4368C61.9548 96.102 61.7311 95.754 61.5554 95.3928C61.383 95.0282 61.2969 94.6338 61.2969 94.2095C61.2969 93.7289 61.4079 93.2997 61.63 92.9219C61.852 92.5407 62.1619 92.2408 62.5597 92.022C62.9607 91.8033 63.4297 91.6939 63.9666 91.6939C64.5036 91.6939 64.9643 91.8 65.3487 92.0121C65.7332 92.2242 66.0298 92.5059 66.2386 92.8572C66.4474 93.2086 66.5518 93.5914 66.5518 94.0057C66.5518 94.4863 66.4325 94.9171 66.1939 95.2983C65.9553 95.6761 65.6238 96.0192 65.1996 96.3274L63.1413 97.8338C62.8033 98.0791 62.5613 98.3277 62.4155 98.5795C62.2696 98.8281 62.1967 99.0402 62.1967 99.2159C62.1967 99.4844 62.2647 99.728 62.4006 99.9467C62.5365 100.165 62.727 100.341 62.9723 100.474C63.2209 100.603 63.5109 100.668 63.8423 100.668C64.2069 100.668 64.5665 100.586 64.9212 100.424C65.2758 100.258 65.599 100.023 65.8906 99.718C66.1823 99.4131 66.4143 99.0485 66.5866 98.6243C66.759 98.1967 66.8452 97.7228 66.8452 97.2024H68.3913C68.3913 97.8454 68.3201 98.4055 68.1776 98.8828C68.035 99.3568 67.8511 99.7578 67.6257 100.086C67.4003 100.411 67.1617 100.671 66.9098 100.866C66.8303 100.923 66.754 100.979 66.6811 101.036C66.6082 101.092 66.532 101.148 66.4524 101.205C66.0945 101.529 65.6752 101.768 65.1946 101.92C64.7173 102.073 64.2483 102.149 63.7876 102.149ZM77.0307 102H73.5804V91.8182H77.1003C78.1112 91.8182 78.9796 92.022 79.7054 92.4297C80.4346 92.834 80.9947 93.4157 81.3858 94.1747C81.7769 94.9337 81.9725 95.8419 81.9725 96.8991C81.9725 97.9598 81.7753 98.8712 81.3809 99.6335C80.9898 100.396 80.4247 100.981 79.6855 101.388C78.9498 101.796 78.0648 102 77.0307 102ZM75.4249 100.404H76.9412C77.6505 100.404 78.2421 100.275 78.7161 100.016C79.19 99.7545 79.5463 99.3651 79.785 98.848C80.0236 98.3277 80.1429 97.678 80.1429 96.8991C80.1429 96.1203 80.0236 95.474 79.785 94.9602C79.5463 94.4432 79.1934 94.0571 78.726 93.8018C78.262 93.5433 77.6853 93.4141 76.9959 93.4141H75.4249V100.404ZM83.6454 102V94.3636H85.3904V95.6364H85.47C85.6092 95.1955 85.8478 94.8558 86.1859 94.6172C86.5273 94.3752 86.9167 94.2543 87.3542 94.2543C87.4537 94.2543 87.5647 94.2592 87.6873 94.2692C87.8133 94.2758 87.9177 94.2874 88.0005 94.304V95.9595C87.9243 95.933 87.8033 95.9098 87.6376 95.8899C87.4752 95.8667 87.3178 95.8551 87.1653 95.8551C86.8372 95.8551 86.5422 95.9264 86.2804 96.0689C86.0218 96.2081 85.818 96.402 85.6689 96.6506C85.5197 96.8991 85.4451 97.1858 85.4451 97.5107V102H83.6454ZM92.2127 102.149C91.467 102.149 90.8207 101.985 90.2738 101.657C89.7269 101.329 89.3027 100.87 89.0011 100.28C88.7028 99.6899 88.5536 99.0005 88.5536 98.2116C88.5536 97.4228 88.7028 96.7318 89.0011 96.1385C89.3027 95.5452 89.7269 95.0845 90.2738 94.7564C90.8207 94.4283 91.467 94.2642 92.2127 94.2642C92.9585 94.2642 93.6048 94.4283 94.1516 94.7564C94.6985 95.0845 95.1211 95.5452 95.4194 96.1385C95.721 96.7318 95.8718 97.4228 95.8718 98.2116C95.8718 99.0005 95.721 99.6899 95.4194 100.28C95.1211 100.87 94.6985 101.329 94.1516 101.657C93.6048 101.985 92.9585 102.149 92.2127 102.149ZM92.2227 100.707C92.627 100.707 92.9651 100.596 93.2369 100.374C93.5086 100.149 93.7108 99.8473 93.8434 99.4695C93.9793 99.0916 94.0472 98.6707 94.0472 98.2067C94.0472 97.7393 93.9793 97.3168 93.8434 96.9389C93.7108 96.5578 93.5086 96.2545 93.2369 96.0291C92.9651 95.8037 92.627 95.6911 92.2227 95.6911C91.8084 95.6911 91.4637 95.8037 91.1886 96.0291C90.9168 96.2545 90.7129 96.5578 90.5771 96.9389C90.4445 97.3168 90.3782 97.7393 90.3782 98.2067C90.3782 98.6707 90.4445 99.0916 90.5771 99.4695C90.7129 99.8473 90.9168 100.149 91.1886 100.374C91.4637 100.596 91.8084 100.707 92.2227 100.707ZM97.3993 104.864V94.3636H99.1692V95.6264H99.2736C99.3664 95.4408 99.4973 95.2436 99.6664 95.0348C99.8354 94.8227 100.064 94.642 100.352 94.4929C100.641 94.3404 101.009 94.2642 101.456 94.2642C102.046 94.2642 102.578 94.415 103.052 94.7166C103.529 95.0149 103.907 95.4574 104.186 96.044C104.467 96.6274 104.608 97.3433 104.608 98.1918C104.608 99.0303 104.471 99.7429 104.195 100.33C103.92 100.916 103.546 101.364 103.072 101.672C102.598 101.98 102.061 102.134 101.461 102.134C101.024 102.134 100.661 102.061 100.372 101.915C100.084 101.77 99.852 101.594 99.6763 101.388C99.504 101.18 99.3697 100.982 99.2736 100.797H99.199V104.864H97.3993ZM99.1642 98.1818C99.1642 98.6757 99.2338 99.1082 99.373 99.4794C99.5156 99.8506 99.7194 100.141 99.9846 100.349C100.253 100.555 100.578 100.658 100.959 100.658C101.357 100.658 101.69 100.552 101.958 100.339C102.227 100.124 102.429 99.8307 102.565 99.4595C102.704 99.085 102.774 98.6591 102.774 98.1818C102.774 97.7079 102.706 97.2869 102.57 96.919C102.434 96.5511 102.232 96.2628 101.963 96.054C101.695 95.8452 101.36 95.7408 100.959 95.7408C100.575 95.7408 100.248 95.8419 99.9796 96.044C99.7111 96.2462 99.5073 96.5296 99.3681 96.8942C99.2322 97.2588 99.1642 97.688 99.1642 98.1818ZM112.953 102.149C112.207 102.149 111.561 101.985 111.014 101.657C110.467 101.329 110.043 100.87 109.741 100.28C109.443 99.6899 109.294 99.0005 109.294 98.2116C109.294 97.4228 109.443 96.7318 109.741 96.1385C110.043 95.5452 110.467 95.0845 111.014 94.7564C111.561 94.4283 112.207 94.2642 112.953 94.2642C113.699 94.2642 114.345 94.4283 114.892 94.7564C115.439 95.0845 115.861 95.5452 116.16 96.1385C116.461 96.7318 116.612 97.4228 116.612 98.2116C116.612 99.0005 116.461 99.6899 116.16 100.28C115.861 100.87 115.439 101.329 114.892 101.657C114.345 101.985 113.699 102.149 112.953 102.149ZM112.963 100.707C113.367 100.707 113.705 100.596 113.977 100.374C114.249 100.149 114.451 99.8473 114.584 99.4695C114.72 99.0916 114.787 98.6707 114.787 98.2067C114.787 97.7393 114.72 97.3168 114.584 96.9389C114.451 96.5578 114.249 96.2545 113.977 96.0291C113.705 95.8037 113.367 95.6911 112.963 95.6911C112.549 95.6911 112.204 95.8037 111.929 96.0291C111.657 96.2545 111.453 96.5578 111.317 96.9389C111.185 97.3168 111.118 97.7393 111.118 98.2067C111.118 98.6707 111.185 99.0916 111.317 99.4695C111.453 99.8473 111.657 100.149 111.929 100.374C112.204 100.596 112.549 100.707 112.963 100.707ZM118.14 102V94.3636H119.885V95.6364H119.964C120.103 95.1955 120.342 94.8558 120.68 94.6172C121.021 94.3752 121.411 94.2543 121.848 94.2543C121.948 94.2543 122.059 94.2592 122.181 94.2692C122.307 94.2758 122.412 94.2874 122.495 94.304V95.9595C122.418 95.933 122.297 95.9098 122.132 95.8899C121.969 95.8667 121.812 95.8551 121.659 95.8551C121.331 95.8551 121.036 95.9264 120.775 96.0689C120.516 96.2081 120.312 96.402 120.163 96.6506C120.014 96.8991 119.939 97.1858 119.939 97.5107V102H118.14ZM180.319 102V94.3636H182.119V102H180.319ZM181.224 93.2798C180.939 93.2798 180.694 93.1854 180.488 92.9964C180.283 92.8042 180.18 92.5739 180.18 92.3054C180.18 92.0336 180.283 91.8033 180.488 91.6143C180.694 91.4221 180.939 91.326 181.224 91.326C181.512 91.326 181.758 91.4221 181.96 91.6143C182.165 91.8033 182.268 92.0336 182.268 92.3054C182.268 92.5739 182.165 92.8042 181.96 92.9964C181.758 93.1854 181.512 93.2798 181.224 93.2798ZM183.97 102V94.3636H185.69V95.6612H185.779C185.938 95.2237 186.202 94.8823 186.57 94.6371C186.938 94.3885 187.377 94.2642 187.887 94.2642C188.404 94.2642 188.84 94.3902 189.195 94.642C189.553 94.8906 189.805 95.2304 189.95 95.6612H190.03C190.199 95.237 190.484 94.8989 190.885 94.647C191.289 94.3918 191.768 94.2642 192.322 94.2642C193.025 94.2642 193.598 94.4863 194.042 94.9304C194.486 95.3745 194.708 96.0225 194.708 96.8743V102H192.904V97.1527C192.904 96.6787 192.778 96.3324 192.526 96.1136C192.274 95.8916 191.966 95.7805 191.601 95.7805C191.167 95.7805 190.827 95.9164 190.582 96.1882C190.34 96.4567 190.219 96.8063 190.219 97.2372V102H188.454V97.0781C188.454 96.6837 188.335 96.3688 188.096 96.1335C187.861 95.8982 187.552 95.7805 187.171 95.7805C186.913 95.7805 186.677 95.8468 186.465 95.9794C186.253 96.1087 186.084 96.2926 185.958 96.5312C185.832 96.7666 185.769 97.0417 185.769 97.3565V102H183.97ZM198.732 102.154C198.248 102.154 197.812 102.068 197.424 101.896C197.04 101.72 196.735 101.461 196.509 101.12C196.287 100.779 196.176 100.358 196.176 99.8572C196.176 99.4264 196.256 99.0701 196.415 98.7884C196.574 98.5066 196.791 98.2812 197.066 98.1122C197.341 97.9432 197.651 97.8156 197.996 97.7294C198.344 97.6399 198.703 97.5753 199.075 97.5355C199.522 97.4891 199.885 97.4477 200.163 97.4112C200.442 97.3714 200.644 97.3118 200.77 97.2322C200.899 97.1494 200.964 97.0218 200.964 96.8494V96.8196C200.964 96.4451 200.853 96.1551 200.631 95.9496C200.409 95.7441 200.089 95.6413 199.671 95.6413C199.23 95.6413 198.881 95.7375 198.622 95.9297C198.367 96.1219 198.195 96.349 198.105 96.6108L196.425 96.3722C196.557 95.9081 196.776 95.5204 197.081 95.2088C197.386 94.8939 197.759 94.6586 198.2 94.5028C198.64 94.3438 199.128 94.2642 199.661 94.2642C200.029 94.2642 200.395 94.3073 200.76 94.3935C201.125 94.4796 201.458 94.6222 201.759 94.821C202.061 95.0166 202.303 95.2834 202.485 95.6214C202.671 95.9595 202.763 96.3821 202.763 96.8892V102H201.033V100.951H200.974C200.864 101.163 200.71 101.362 200.511 101.548C200.316 101.73 200.069 101.877 199.771 101.99C199.476 102.099 199.129 102.154 198.732 102.154ZM199.199 100.832C199.56 100.832 199.873 100.76 200.138 100.618C200.404 100.472 200.607 100.28 200.75 100.041C200.896 99.8026 200.969 99.5424 200.969 99.2607V98.3608C200.912 98.4072 200.816 98.4503 200.68 98.4901C200.548 98.5298 200.399 98.5646 200.233 98.5945C200.067 98.6243 199.903 98.6508 199.741 98.674C199.578 98.6972 199.438 98.7171 199.318 98.7337C199.05 98.7701 198.809 98.8298 198.597 98.9126C198.385 98.9955 198.218 99.1115 198.095 99.2607C197.973 99.4065 197.911 99.5954 197.911 99.8274C197.911 100.159 198.032 100.409 198.274 100.578C198.516 100.747 198.824 100.832 199.199 100.832ZM207.894 105.023C207.248 105.023 206.693 104.935 206.229 104.759C205.765 104.587 205.392 104.355 205.11 104.063C204.828 103.772 204.633 103.448 204.523 103.094L206.144 102.701C206.217 102.85 206.323 102.998 206.462 103.143C206.602 103.293 206.789 103.415 207.024 103.511C207.263 103.611 207.563 103.661 207.924 103.661C208.434 103.661 208.857 103.536 209.192 103.288C209.527 103.042 209.694 102.638 209.694 102.075V100.628H209.604C209.512 100.813 209.376 101.004 209.197 101.2C209.021 101.395 208.787 101.559 208.496 101.692C208.207 101.824 207.844 101.891 207.407 101.891C206.82 101.891 206.288 101.753 205.811 101.478C205.337 101.2 204.959 100.785 204.678 100.235C204.399 99.6816 204.26 98.9889 204.26 98.157C204.26 97.3184 204.399 96.6108 204.678 96.0341C204.959 95.4541 205.339 95.0149 205.816 94.7166C206.293 94.415 206.825 94.2642 207.412 94.2642C207.859 94.2642 208.227 94.3404 208.516 94.4929C208.807 94.642 209.039 94.8227 209.212 95.0348C209.384 95.2436 209.515 95.4408 209.604 95.6264H209.704V94.3636H211.479V102.124C211.479 102.777 211.323 103.317 211.011 103.745C210.7 104.173 210.274 104.492 209.734 104.705C209.193 104.917 208.58 105.023 207.894 105.023ZM207.909 100.479C208.29 100.479 208.615 100.386 208.884 100.2C209.152 100.015 209.356 99.7479 209.495 99.3999C209.634 99.0518 209.704 98.6342 209.704 98.147C209.704 97.6664 209.634 97.2455 209.495 96.8842C209.359 96.523 209.157 96.2429 208.888 96.044C208.623 95.8419 208.297 95.7408 207.909 95.7408C207.508 95.7408 207.173 95.8452 206.905 96.054C206.636 96.2628 206.434 96.5495 206.298 96.9141C206.162 97.2753 206.094 97.6863 206.094 98.147C206.094 98.6143 206.162 99.0237 206.298 99.375C206.438 99.723 206.641 99.9948 206.91 100.19C207.182 100.383 207.515 100.479 207.909 100.479ZM216.704 102.149C215.938 102.149 215.277 101.99 214.72 101.672C214.167 101.35 213.741 100.896 213.442 100.31C213.144 99.7197 212.995 99.0253 212.995 98.2266C212.995 97.4411 213.144 96.7517 213.442 96.1584C213.744 95.5618 214.165 95.0978 214.705 94.7663C215.246 94.4316 215.88 94.2642 216.609 94.2642C217.08 94.2642 217.524 94.3404 217.942 94.4929C218.363 94.642 218.734 94.8741 219.055 95.1889C219.38 95.5038 219.635 95.9048 219.821 96.392C220.007 96.8759 220.099 97.4527 220.099 98.1222V98.674H213.84V97.4609H218.374C218.371 97.1162 218.296 96.8097 218.151 96.5412C218.005 96.2694 217.801 96.0556 217.539 95.8999C217.281 95.7441 216.979 95.6662 216.634 95.6662C216.266 95.6662 215.943 95.7557 215.665 95.9347C215.386 96.1103 215.169 96.3423 215.013 96.6307C214.861 96.9157 214.783 97.2289 214.78 97.5703V98.6293C214.78 99.0734 214.861 99.4545 215.023 99.7727C215.186 100.088 215.413 100.33 215.705 100.499C215.996 100.664 216.338 100.747 216.729 100.747C216.991 100.747 217.228 100.711 217.44 100.638C217.652 100.562 217.836 100.451 217.991 100.305C218.147 100.159 218.265 99.9782 218.344 99.7628L220.025 99.9517C219.919 100.396 219.717 100.784 219.418 101.115C219.123 101.443 218.746 101.698 218.285 101.881C217.824 102.06 217.297 102.149 216.704 102.149ZM228.908 94.3636V95.7557H224.518V94.3636H228.908ZM225.602 92.5341H227.401V99.7031C227.401 99.9451 227.438 100.131 227.511 100.26C227.587 100.386 227.686 100.472 227.809 100.518C227.932 100.565 228.068 100.588 228.217 100.588C228.329 100.588 228.432 100.58 228.525 100.563C228.621 100.547 228.694 100.532 228.744 100.518L229.047 101.925C228.951 101.959 228.813 101.995 228.634 102.035C228.459 102.075 228.243 102.098 227.988 102.104C227.537 102.118 227.131 102.05 226.77 101.901C226.409 101.748 226.122 101.513 225.91 101.195C225.701 100.876 225.598 100.479 225.602 100.001V92.5341ZM233.662 102.149C232.916 102.149 232.27 101.985 231.723 101.657C231.176 101.329 230.752 100.87 230.45 100.28C230.152 99.6899 230.003 99.0005 230.003 98.2116C230.003 97.4228 230.152 96.7318 230.45 96.1385C230.752 95.5452 231.176 95.0845 231.723 94.7564C232.27 94.4283 232.916 94.2642 233.662 94.2642C234.408 94.2642 235.054 94.4283 235.601 94.7564C236.148 95.0845 236.57 95.5452 236.869 96.1385C237.17 96.7318 237.321 97.4228 237.321 98.2116C237.321 99.0005 237.17 99.6899 236.869 100.28C236.57 100.87 236.148 101.329 235.601 101.657C235.054 101.985 234.408 102.149 233.662 102.149ZM233.672 100.707C234.076 100.707 234.414 100.596 234.686 100.374C234.958 100.149 235.16 99.8473 235.293 99.4695C235.429 99.0916 235.496 98.6707 235.496 98.2067C235.496 97.7393 235.429 97.3168 235.293 96.9389C235.16 96.5578 234.958 96.2545 234.686 96.0291C234.414 95.8037 234.076 95.6911 233.672 95.6911C233.258 95.6911 232.913 95.8037 232.638 96.0291C232.366 96.2545 232.162 96.5578 232.026 96.9389C231.894 97.3168 231.827 97.7393 231.827 98.2067C231.827 98.6707 231.894 99.0916 232.026 99.4695C232.162 99.8473 232.366 100.149 232.638 100.374C232.913 100.596 233.258 100.707 233.672 100.707ZM247.188 98.7884V94.3636H248.988V102H247.243V100.643H247.164C246.991 101.07 246.708 101.42 246.313 101.692C245.922 101.964 245.44 102.099 244.867 102.099C244.366 102.099 243.924 101.988 243.539 101.766C243.158 101.541 242.86 101.214 242.644 100.787C242.429 100.356 242.321 99.8357 242.321 99.2259V94.3636H244.121V98.9474C244.121 99.4313 244.253 99.8158 244.519 100.101C244.784 100.386 245.132 100.528 245.563 100.528C245.828 100.528 246.085 100.464 246.333 100.335C246.582 100.205 246.786 100.013 246.945 99.7578C247.107 99.4993 247.188 99.1761 247.188 98.7884ZM250.839 104.864V94.3636H252.609V95.6264H252.713C252.806 95.4408 252.937 95.2436 253.106 95.0348C253.275 94.8227 253.504 94.642 253.792 94.4929C254.08 94.3404 254.448 94.2642 254.896 94.2642C255.486 94.2642 256.018 94.415 256.491 94.7166C256.969 95.0149 257.347 95.4574 257.625 96.044C257.907 96.6274 258.048 97.3433 258.048 98.1918C258.048 99.0303 257.91 99.7429 257.635 100.33C257.36 100.916 256.985 101.364 256.511 101.672C256.037 101.98 255.5 102.134 254.901 102.134C254.463 102.134 254.1 102.061 253.812 101.915C253.523 101.77 253.291 101.594 253.116 101.388C252.943 101.18 252.809 100.982 252.713 100.797H252.638V104.864H250.839ZM252.604 98.1818C252.604 98.6757 252.673 99.1082 252.812 99.4794C252.955 99.8506 253.159 100.141 253.424 100.349C253.692 100.555 254.017 100.658 254.398 100.658C254.796 100.658 255.129 100.552 255.398 100.339C255.666 100.124 255.868 99.8307 256.004 99.4595C256.143 99.085 256.213 98.6591 256.213 98.1818C256.213 97.7079 256.145 97.2869 256.009 96.919C255.873 96.5511 255.671 96.2628 255.403 96.054C255.134 95.8452 254.799 95.7408 254.398 95.7408C254.014 95.7408 253.688 95.8419 253.419 96.044C253.151 96.2462 252.947 96.5296 252.808 96.8942C252.672 97.2588 252.604 97.688 252.604 98.1818ZM261.388 91.8182V102H259.589V91.8182H261.388ZM266.57 102.149C265.824 102.149 265.178 101.985 264.631 101.657C264.084 101.329 263.66 100.87 263.358 100.28C263.06 99.6899 262.911 99.0005 262.911 98.2116C262.911 97.4228 263.06 96.7318 263.358 96.1385C263.66 95.5452 264.084 95.0845 264.631 94.7564C265.178 94.4283 265.824 94.2642 266.57 94.2642C267.316 94.2642 267.962 94.4283 268.509 94.7564C269.056 95.0845 269.479 95.5452 269.777 96.1385C270.078 96.7318 270.229 97.4228 270.229 98.2116C270.229 99.0005 270.078 99.6899 269.777 100.28C269.479 100.87 269.056 101.329 268.509 101.657C267.962 101.985 267.316 102.149 266.57 102.149ZM266.58 100.707C266.984 100.707 267.323 100.596 267.594 100.374C267.866 100.149 268.068 99.8473 268.201 99.4695C268.337 99.0916 268.405 98.6707 268.405 98.2067C268.405 97.7393 268.337 97.3168 268.201 96.9389C268.068 96.5578 267.866 96.2545 267.594 96.0291C267.323 95.8037 266.984 95.6911 266.58 95.6911C266.166 95.6911 265.821 95.8037 265.546 96.0291C265.274 96.2545 265.07 96.5578 264.934 96.9389C264.802 97.3168 264.736 97.7393 264.736 98.2067C264.736 98.6707 264.802 99.0916 264.934 99.4695C265.07 99.8473 265.274 100.149 265.546 100.374C265.821 100.596 266.166 100.707 266.58 100.707ZM273.954 102.154C273.47 102.154 273.034 102.068 272.647 101.896C272.262 101.72 271.957 101.461 271.732 101.12C271.51 100.779 271.399 100.358 271.399 99.8572C271.399 99.4264 271.478 99.0701 271.637 98.7884C271.797 98.5066 272.014 98.2812 272.289 98.1122C272.564 97.9432 272.874 97.8156 273.218 97.7294C273.566 97.6399 273.926 97.5753 274.297 97.5355C274.745 97.4891 275.108 97.4477 275.386 97.4112C275.664 97.3714 275.867 97.3118 275.993 97.2322C276.122 97.1494 276.186 97.0218 276.186 96.8494V96.8196C276.186 96.4451 276.075 96.1551 275.853 95.9496C275.631 95.7441 275.311 95.6413 274.894 95.6413C274.453 95.6413 274.103 95.7375 273.845 95.9297C273.59 96.1219 273.417 96.349 273.328 96.6108L271.647 96.3722C271.78 95.9081 271.999 95.5204 272.304 95.2088C272.609 94.8939 272.981 94.6586 273.422 94.5028C273.863 94.3438 274.35 94.2642 274.884 94.2642C275.252 94.2642 275.618 94.3073 275.983 94.3935C276.347 94.4796 276.68 94.6222 276.982 94.821C277.283 95.0166 277.525 95.2834 277.708 95.6214C277.893 95.9595 277.986 96.3821 277.986 96.8892V102H276.256V100.951H276.196C276.087 101.163 275.933 101.362 275.734 101.548C275.538 101.73 275.292 101.877 274.993 101.99C274.698 102.099 274.352 102.154 273.954 102.154ZM274.422 100.832C274.783 100.832 275.096 100.76 275.361 100.618C275.626 100.472 275.83 100.28 275.973 100.041C276.118 99.8026 276.191 99.5424 276.191 99.2607V98.3608C276.135 98.4072 276.039 98.4503 275.903 98.4901C275.77 98.5298 275.621 98.5646 275.456 98.5945C275.29 98.6243 275.126 98.6508 274.963 98.674C274.801 98.6972 274.66 98.7171 274.541 98.7337C274.272 98.7701 274.032 98.8298 273.82 98.9126C273.608 98.9955 273.44 99.1115 273.318 99.2607C273.195 99.4065 273.134 99.5954 273.134 99.8274C273.134 100.159 273.255 100.409 273.497 100.578C273.739 100.747 274.047 100.832 274.422 100.832ZM282.63 102.134C282.03 102.134 281.493 101.98 281.019 101.672C280.545 101.364 280.17 100.916 279.895 100.33C279.62 99.7429 279.483 99.0303 279.483 98.1918C279.483 97.3433 279.622 96.6274 279.9 96.044C280.182 95.4574 280.561 95.0149 281.039 94.7166C281.516 94.415 282.048 94.2642 282.635 94.2642C283.082 94.2642 283.45 94.3404 283.738 94.4929C284.027 94.642 284.255 94.8227 284.424 95.0348C284.593 95.2436 284.724 95.4408 284.817 95.6264H284.892V91.8182H286.696V102H284.926V100.797H284.817C284.724 100.982 284.59 101.18 284.414 101.388C284.239 101.594 284.007 101.77 283.718 101.915C283.43 102.061 283.067 102.134 282.63 102.134ZM283.132 100.658C283.513 100.658 283.838 100.555 284.106 100.349C284.375 100.141 284.578 99.8506 284.718 99.4794C284.857 99.1082 284.926 98.6757 284.926 98.1818C284.926 97.688 284.857 97.2588 284.718 96.8942C284.582 96.5296 284.38 96.2462 284.111 96.044C283.846 95.8419 283.52 95.7408 283.132 95.7408C282.731 95.7408 282.396 95.8452 282.127 96.054C281.859 96.2628 281.657 96.5511 281.521 96.919C281.385 97.2869 281.317 97.7079 281.317 98.1818C281.317 98.6591 281.385 99.085 281.521 99.4595C281.66 99.8307 281.864 100.124 282.132 100.339C282.404 100.552 282.737 100.658 283.132 100.658Z" fill="white"/>
    <path d="M130.494 102.149C129.732 102.149 129.077 101.982 128.53 101.647C127.987 101.312 127.567 100.85 127.272 100.26C126.981 99.6667 126.835 98.9839 126.835 98.2116C126.835 97.4361 126.984 96.7517 127.282 96.1584C127.581 95.5618 128.002 95.0978 128.545 94.7663C129.092 94.4316 129.738 94.2642 130.484 94.2642C131.104 94.2642 131.652 94.3786 132.13 94.6072C132.61 94.8326 132.993 95.1525 133.278 95.5668C133.563 95.9777 133.725 96.4583 133.765 97.0085H132.045C131.975 96.6406 131.81 96.334 131.548 96.0888C131.289 95.8402 130.943 95.7159 130.509 95.7159C130.141 95.7159 129.818 95.8153 129.539 96.0142C129.261 96.2098 129.044 96.4915 128.888 96.8594C128.736 97.2273 128.659 97.6681 128.659 98.1818C128.659 98.7022 128.736 99.1496 128.888 99.5241C129.041 99.8954 129.254 100.182 129.529 100.384C129.808 100.583 130.134 100.683 130.509 100.683C130.774 100.683 131.011 100.633 131.22 100.533C131.432 100.431 131.609 100.283 131.752 100.091C131.894 99.8987 131.992 99.665 132.045 99.3899H133.765C133.722 99.9302 133.563 100.409 133.288 100.827C133.013 101.241 132.638 101.566 132.164 101.801C131.69 102.033 131.134 102.149 130.494 102.149ZM137.043 97.5256V102H135.243V91.8182H137.003V95.6612H137.093C137.271 95.2304 137.548 94.8906 137.923 94.642C138.301 94.3902 138.781 94.2642 139.365 94.2642C139.895 94.2642 140.357 94.3752 140.752 94.5973C141.146 94.8194 141.451 95.1442 141.666 95.5717C141.885 95.9993 141.994 96.5213 141.994 97.1378V102H140.195V97.4162C140.195 96.9025 140.062 96.5031 139.797 96.218C139.535 95.9297 139.167 95.7855 138.693 95.7855C138.375 95.7855 138.09 95.8551 137.838 95.9943C137.59 96.1302 137.394 96.3274 137.252 96.5859C137.112 96.8445 137.043 97.1577 137.043 97.5256ZM147.16 102.149C146.414 102.149 145.768 101.985 145.221 101.657C144.674 101.329 144.25 100.87 143.948 100.28C143.65 99.6899 143.501 99.0005 143.501 98.2116C143.501 97.4228 143.65 96.7318 143.948 96.1385C144.25 95.5452 144.674 95.0845 145.221 94.7564C145.768 94.4283 146.414 94.2642 147.16 94.2642C147.906 94.2642 148.552 94.4283 149.099 94.7564C149.646 95.0845 150.068 95.5452 150.367 96.1385C150.668 96.7318 150.819 97.4228 150.819 98.2116C150.819 99.0005 150.668 99.6899 150.367 100.28C150.068 100.87 149.646 101.329 149.099 101.657C148.552 101.985 147.906 102.149 147.16 102.149ZM147.17 100.707C147.574 100.707 147.912 100.596 148.184 100.374C148.456 100.149 148.658 99.8473 148.791 99.4695C148.927 99.0916 148.994 98.6707 148.994 98.2067C148.994 97.7393 148.927 97.3168 148.791 96.9389C148.658 96.5578 148.456 96.2545 148.184 96.0291C147.912 95.8037 147.574 95.6911 147.17 95.6911C146.756 95.6911 146.411 95.8037 146.136 96.0291C145.864 96.2545 145.66 96.5578 145.524 96.9389C145.392 97.3168 145.325 97.7393 145.325 98.2067C145.325 98.6707 145.392 99.0916 145.524 99.4695C145.66 99.8473 145.864 100.149 146.136 100.374C146.411 100.596 146.756 100.707 147.17 100.707ZM155.678 102.149C154.932 102.149 154.286 101.985 153.739 101.657C153.192 101.329 152.768 100.87 152.466 100.28C152.168 99.6899 152.018 99.0005 152.018 98.2116C152.018 97.4228 152.168 96.7318 152.466 96.1385C152.768 95.5452 153.192 95.0845 153.739 94.7564C154.286 94.4283 154.932 94.2642 155.678 94.2642C156.423 94.2642 157.07 94.4283 157.616 94.7564C158.163 95.0845 158.586 95.5452 158.884 96.1385C159.186 96.7318 159.337 97.4228 159.337 98.2116C159.337 99.0005 159.186 99.6899 158.884 100.28C158.586 100.87 158.163 101.329 157.616 101.657C157.07 101.985 156.423 102.149 155.678 102.149ZM155.688 100.707C156.092 100.707 156.43 100.596 156.702 100.374C156.973 100.149 157.176 99.8473 157.308 99.4695C157.444 99.0916 157.512 98.6707 157.512 98.2067C157.512 97.7393 157.444 97.3168 157.308 96.9389C157.176 96.5578 156.973 96.2545 156.702 96.0291C156.43 95.8037 156.092 95.6911 155.688 95.6911C155.273 95.6911 154.929 95.8037 154.653 96.0291C154.382 96.2545 154.178 96.5578 154.042 96.9389C153.909 97.3168 153.843 97.7393 153.843 98.2067C153.843 98.6707 153.909 99.0916 154.042 99.4695C154.178 99.8473 154.382 100.149 154.653 100.374C154.929 100.596 155.273 100.707 155.688 100.707ZM166.9 96.3821L165.259 96.5611C165.213 96.3954 165.131 96.2396 165.015 96.0938C164.903 95.9479 164.75 95.8303 164.558 95.7408C164.366 95.6513 164.131 95.6065 163.852 95.6065C163.478 95.6065 163.163 95.6877 162.907 95.8501C162.656 96.0125 162.531 96.223 162.535 96.4815C162.531 96.7036 162.613 96.8842 162.778 97.0234C162.947 97.1626 163.226 97.277 163.613 97.3665L164.916 97.6449C165.639 97.8007 166.175 98.0476 166.527 98.3857C166.881 98.7237 167.06 99.1662 167.064 99.7131C167.06 100.194 166.92 100.618 166.641 100.986C166.366 101.35 165.983 101.635 165.493 101.841C165.002 102.046 164.439 102.149 163.802 102.149C162.868 102.149 162.115 101.954 161.545 101.562C160.975 101.168 160.635 100.62 160.526 99.9169L162.281 99.7479C162.361 100.093 162.53 100.353 162.788 100.528C163.047 100.704 163.383 100.792 163.797 100.792C164.225 100.792 164.568 100.704 164.827 100.528C165.088 100.353 165.219 100.136 165.219 99.8771C165.219 99.6584 165.135 99.4777 164.966 99.3352C164.8 99.1927 164.541 99.0833 164.19 99.0071L162.888 98.7337C162.155 98.5812 161.613 98.3243 161.262 97.9631C160.911 97.5985 160.737 97.1378 160.74 96.581C160.737 96.1103 160.864 95.7027 161.123 95.358C161.385 95.0099 161.747 94.7415 162.211 94.5526C162.679 94.3603 163.217 94.2642 163.827 94.2642C164.722 94.2642 165.426 94.4548 165.94 94.8359C166.457 95.2171 166.777 95.7325 166.9 96.3821ZM171.928 102.149C171.163 102.149 170.502 101.99 169.945 101.672C169.391 101.35 168.965 100.896 168.667 100.31C168.369 99.7197 168.22 99.0253 168.22 98.2266C168.22 97.4411 168.369 96.7517 168.667 96.1584C168.969 95.5618 169.39 95.0978 169.93 94.7663C170.47 94.4316 171.105 94.2642 171.834 94.2642C172.305 94.2642 172.749 94.3404 173.166 94.4929C173.587 94.642 173.959 94.8741 174.28 95.1889C174.605 95.5038 174.86 95.9048 175.046 96.392C175.231 96.8759 175.324 97.4527 175.324 98.1222V98.674H169.065V97.4609H173.599C173.596 97.1162 173.521 96.8097 173.375 96.5412C173.229 96.2694 173.026 96.0556 172.764 95.8999C172.505 95.7441 172.204 95.6662 171.859 95.6662C171.491 95.6662 171.168 95.7557 170.889 95.9347C170.611 96.1103 170.394 96.3423 170.238 96.6307C170.086 96.9157 170.008 97.2289 170.004 97.5703V98.6293C170.004 99.0734 170.086 99.4545 170.248 99.7727C170.41 100.088 170.637 100.33 170.929 100.499C171.221 100.664 171.562 100.747 171.953 100.747C172.215 100.747 172.452 100.711 172.664 100.638C172.876 100.562 173.06 100.451 173.216 100.305C173.372 100.159 173.49 99.9782 173.569 99.7628L175.249 99.9517C175.143 100.396 174.941 100.784 174.643 101.115C174.348 101.443 173.97 101.698 173.509 101.881C173.049 102.06 172.522 102.149 171.928 102.149Z" fill="#156CF7"/>
    <path d="M88.3011 119.364C88.2415 118.86 87.9995 118.469 87.5753 118.19C87.151 117.912 86.6307 117.773 86.0142 117.773C85.5634 117.773 85.169 117.846 84.831 117.991C84.4962 118.137 84.2344 118.338 84.0455 118.593C83.8598 118.848 83.767 119.138 83.767 119.463C83.767 119.735 83.8317 119.969 83.9609 120.164C84.0935 120.356 84.2625 120.517 84.468 120.646C84.6735 120.772 84.889 120.877 85.1143 120.96C85.3397 121.039 85.5469 121.104 85.7358 121.153L86.7699 121.432C87.035 121.501 87.33 121.598 87.6548 121.72C87.983 121.843 88.2962 122.01 88.5945 122.222C88.8961 122.431 89.1446 122.7 89.3402 123.028C89.5357 123.356 89.6335 123.759 89.6335 124.236C89.6335 124.786 89.4893 125.283 89.201 125.727C88.916 126.171 88.4983 126.524 87.9482 126.786C87.4013 127.048 86.7367 127.179 85.9545 127.179C85.2254 127.179 84.594 127.061 84.0604 126.826C83.5301 126.591 83.1125 126.263 82.8075 125.842C82.5059 125.421 82.3352 124.932 82.2955 124.375H83.5682C83.6013 124.759 83.7306 125.078 83.956 125.33C84.1847 125.578 84.473 125.764 84.821 125.886C85.1723 126.006 85.5502 126.065 85.9545 126.065C86.4252 126.065 86.8478 125.989 87.2223 125.837C87.5968 125.681 87.8935 125.465 88.1122 125.19C88.331 124.912 88.4403 124.587 88.4403 124.216C88.4403 123.878 88.3459 123.603 88.157 123.391C87.968 123.179 87.7195 123.006 87.4112 122.874C87.103 122.741 86.7699 122.625 86.4119 122.526L85.1591 122.168C84.3636 121.939 83.7339 121.612 83.2699 121.188C82.8059 120.764 82.5739 120.209 82.5739 119.523C82.5739 118.953 82.728 118.455 83.0362 118.031C83.3478 117.604 83.7654 117.272 84.2891 117.037C84.8161 116.798 85.4044 116.679 86.054 116.679C86.7102 116.679 87.2936 116.797 87.804 117.032C88.3144 117.264 88.7188 117.582 89.017 117.987C89.3187 118.391 89.4777 118.85 89.4943 119.364H88.3011ZM94.7033 127.159C93.9675 127.159 93.3328 126.997 92.7992 126.672C92.2689 126.344 91.8596 125.886 91.5712 125.3C91.2862 124.71 91.1436 124.024 91.1436 123.241C91.1436 122.459 91.2862 121.77 91.5712 121.173C91.8596 120.573 92.2606 120.106 92.7743 119.771C93.2914 119.433 93.8946 119.264 94.584 119.264C94.9817 119.264 95.3745 119.33 95.7623 119.463C96.15 119.596 96.503 119.811 96.8212 120.109C97.1394 120.404 97.3929 120.795 97.5819 121.283C97.7708 121.77 97.8652 122.37 97.8652 123.082V123.58H91.9789V122.565H96.6721C96.6721 122.134 96.5859 121.75 96.4135 121.412C96.2445 121.074 96.0025 120.807 95.6877 120.612C95.3761 120.416 95.0082 120.318 94.584 120.318C94.1167 120.318 93.7123 120.434 93.3709 120.666C93.0328 120.895 92.7727 121.193 92.5904 121.561C92.4081 121.929 92.3169 122.323 92.3169 122.744V123.42C92.3169 123.997 92.4164 124.486 92.6152 124.887C92.8174 125.285 93.0975 125.588 93.4554 125.797C93.8134 126.002 94.2293 126.105 94.7033 126.105C95.0115 126.105 95.29 126.062 95.5385 125.976C95.7904 125.886 96.0075 125.754 96.1898 125.578C96.3721 125.399 96.513 125.177 96.6124 124.912L97.7459 125.23C97.6266 125.615 97.4261 125.953 97.1444 126.244C96.8626 126.533 96.5146 126.758 96.1003 126.92C95.686 127.08 95.2203 127.159 94.7033 127.159ZM100.823 116.818V127H99.65V116.818H100.823ZM106.174 127.159C105.438 127.159 104.804 126.997 104.27 126.672C103.74 126.344 103.33 125.886 103.042 125.3C102.757 124.71 102.614 124.024 102.614 123.241C102.614 122.459 102.757 121.77 103.042 121.173C103.33 120.573 103.731 120.106 104.245 119.771C104.762 119.433 105.365 119.264 106.055 119.264C106.452 119.264 106.845 119.33 107.233 119.463C107.621 119.596 107.974 119.811 108.292 120.109C108.61 120.404 108.864 120.795 109.053 121.283C109.241 121.77 109.336 122.37 109.336 123.082V123.58H103.45V122.565H108.143C108.143 122.134 108.057 121.75 107.884 121.412C107.715 121.074 107.473 120.807 107.158 120.612C106.847 120.416 106.479 120.318 106.055 120.318C105.587 120.318 105.183 120.434 104.842 120.666C104.504 120.895 104.243 121.193 104.061 121.561C103.879 121.929 103.788 122.323 103.788 122.744V123.42C103.788 123.997 103.887 124.486 104.086 124.887C104.288 125.285 104.568 125.588 104.926 125.797C105.284 126.002 105.7 126.105 106.174 126.105C106.482 126.105 106.761 126.062 107.009 125.976C107.261 125.886 107.478 125.754 107.661 125.578C107.843 125.399 107.984 125.177 108.083 124.912L109.217 125.23C109.097 125.615 108.897 125.953 108.615 126.244C108.333 126.533 107.985 126.758 107.571 126.92C107.157 127.08 106.691 127.159 106.174 127.159ZM114.223 127.159C113.507 127.159 112.891 126.99 112.374 126.652C111.857 126.314 111.459 125.848 111.18 125.255C110.902 124.662 110.763 123.984 110.763 123.222C110.763 122.446 110.905 121.762 111.19 121.168C111.479 120.572 111.88 120.106 112.393 119.771C112.911 119.433 113.514 119.264 114.203 119.264C114.74 119.264 115.224 119.364 115.655 119.562C116.086 119.761 116.439 120.04 116.714 120.398C116.989 120.756 117.16 121.173 117.226 121.651H116.053C115.963 121.303 115.764 120.994 115.456 120.726C115.151 120.454 114.74 120.318 114.223 120.318C113.766 120.318 113.365 120.437 113.02 120.676C112.679 120.911 112.412 121.245 112.219 121.675C112.031 122.103 111.936 122.605 111.936 123.182C111.936 123.772 112.029 124.286 112.214 124.723C112.403 125.161 112.669 125.5 113.01 125.742C113.355 125.984 113.759 126.105 114.223 126.105C114.528 126.105 114.805 126.052 115.053 125.946C115.302 125.84 115.512 125.688 115.685 125.489C115.857 125.29 115.98 125.051 116.053 124.773H117.226C117.16 125.223 116.996 125.629 116.734 125.991C116.475 126.349 116.132 126.634 115.705 126.846C115.28 127.055 114.786 127.159 114.223 127.159ZM122.262 119.364V120.358H118.305V119.364H122.262ZM119.458 117.534H120.631V124.812C120.631 125.144 120.679 125.393 120.776 125.558C120.875 125.721 121.001 125.83 121.153 125.886C121.309 125.939 121.473 125.966 121.646 125.966C121.775 125.966 121.881 125.959 121.964 125.946C122.047 125.929 122.113 125.916 122.163 125.906L122.401 126.96C122.322 126.99 122.211 127.02 122.068 127.05C121.926 127.083 121.745 127.099 121.526 127.099C121.195 127.099 120.87 127.028 120.552 126.886C120.237 126.743 119.975 126.526 119.766 126.234C119.561 125.943 119.458 125.575 119.458 125.131V117.534ZM127.964 129.864V119.364H129.098V120.577H129.237C129.323 120.444 129.443 120.275 129.595 120.07C129.751 119.861 129.973 119.675 130.261 119.513C130.553 119.347 130.947 119.264 131.445 119.264C132.088 119.264 132.654 119.425 133.145 119.746C133.635 120.068 134.018 120.524 134.293 121.114C134.568 121.704 134.706 122.4 134.706 123.202C134.706 124.01 134.568 124.711 134.293 125.305C134.018 125.895 133.637 126.352 133.15 126.677C132.663 126.998 132.101 127.159 131.464 127.159C130.974 127.159 130.581 127.078 130.286 126.915C129.991 126.75 129.764 126.562 129.605 126.354C129.446 126.142 129.323 125.966 129.237 125.827H129.138V129.864H127.964ZM129.118 123.182C129.118 123.759 129.202 124.267 129.371 124.708C129.54 125.146 129.787 125.489 130.112 125.737C130.437 125.982 130.835 126.105 131.305 126.105C131.796 126.105 132.205 125.976 132.533 125.717C132.865 125.455 133.113 125.104 133.279 124.663C133.448 124.219 133.533 123.725 133.533 123.182C133.533 122.645 133.45 122.161 133.284 121.73C133.122 121.296 132.875 120.953 132.543 120.701C132.215 120.446 131.803 120.318 131.305 120.318C130.828 120.318 130.427 120.439 130.102 120.681C129.777 120.92 129.532 121.254 129.366 121.685C129.201 122.113 129.118 122.612 129.118 123.182ZM137.669 122.406V127H136.496V119.364H137.629V120.557H137.729C137.908 120.169 138.179 119.857 138.544 119.622C138.909 119.384 139.379 119.264 139.956 119.264C140.473 119.264 140.925 119.37 141.313 119.582C141.701 119.791 142.003 120.109 142.218 120.537C142.433 120.961 142.541 121.498 142.541 122.148V127H141.368V122.227C141.368 121.627 141.212 121.16 140.901 120.825C140.589 120.487 140.161 120.318 139.618 120.318C139.243 120.318 138.909 120.399 138.614 120.562C138.322 120.724 138.092 120.961 137.923 121.273C137.754 121.584 137.669 121.962 137.669 122.406ZM147.768 130.023C147.201 130.023 146.714 129.95 146.306 129.804C145.898 129.661 145.559 129.473 145.287 129.237C145.018 129.005 144.805 128.757 144.645 128.491L145.58 127.835C145.686 127.974 145.82 128.134 145.983 128.312C146.145 128.495 146.367 128.652 146.649 128.785C146.934 128.921 147.307 128.989 147.768 128.989C148.384 128.989 148.893 128.839 149.294 128.541C149.695 128.243 149.895 127.776 149.895 127.139V125.588H149.796C149.71 125.727 149.587 125.9 149.428 126.105C149.272 126.307 149.047 126.488 148.752 126.647C148.46 126.803 148.066 126.881 147.569 126.881C146.952 126.881 146.399 126.735 145.908 126.443C145.421 126.152 145.035 125.727 144.75 125.17C144.468 124.614 144.327 123.937 144.327 123.142C144.327 122.36 144.465 121.679 144.74 121.099C145.015 120.515 145.398 120.065 145.888 119.746C146.379 119.425 146.946 119.264 147.589 119.264C148.086 119.264 148.48 119.347 148.772 119.513C149.067 119.675 149.292 119.861 149.448 120.07C149.607 120.275 149.73 120.444 149.816 120.577H149.935V119.364H151.069V127.219C151.069 127.875 150.92 128.409 150.621 128.82C150.326 129.234 149.929 129.537 149.428 129.729C148.931 129.925 148.377 130.023 147.768 130.023ZM147.728 125.827C148.198 125.827 148.596 125.719 148.921 125.504C149.246 125.288 149.493 124.978 149.662 124.574C149.831 124.17 149.915 123.686 149.915 123.122C149.915 122.572 149.832 122.086 149.667 121.665C149.501 121.245 149.256 120.915 148.931 120.676C148.606 120.437 148.205 120.318 147.728 120.318C147.231 120.318 146.816 120.444 146.485 120.696C146.157 120.948 145.91 121.286 145.744 121.71C145.582 122.134 145.501 122.605 145.501 123.122C145.501 123.652 145.583 124.121 145.749 124.529C145.918 124.933 146.167 125.252 146.495 125.484C146.826 125.712 147.237 125.827 147.728 125.827ZM154.966 125.608L154.887 126.145C154.831 126.523 154.744 126.927 154.628 127.358C154.516 127.789 154.398 128.195 154.275 128.576C154.153 128.957 154.052 129.26 153.972 129.486H153.077C153.12 129.274 153.177 128.994 153.246 128.646C153.316 128.298 153.385 127.908 153.455 127.477C153.528 127.05 153.588 126.612 153.634 126.165L153.694 125.608H154.966ZM161.078 119.364H162.251V127.557C162.251 128.027 162.17 128.435 162.007 128.78C161.848 129.125 161.606 129.391 161.282 129.58C160.96 129.769 160.554 129.864 160.064 129.864C160.024 129.864 159.984 129.864 159.944 129.864C159.904 129.864 159.865 129.864 159.825 129.864V128.77C159.865 128.77 159.901 128.77 159.934 128.77C159.967 128.77 160.004 128.77 160.044 128.77C160.402 128.77 160.663 128.664 160.829 128.452C160.995 128.243 161.078 127.945 161.078 127.557V119.364ZM161.654 118.091C161.426 118.091 161.229 118.013 161.063 117.857C160.9 117.701 160.819 117.514 160.819 117.295C160.819 117.077 160.9 116.889 161.063 116.734C161.229 116.578 161.426 116.5 161.654 116.5C161.883 116.5 162.079 116.578 162.241 116.734C162.407 116.889 162.49 117.077 162.49 117.295C162.49 117.514 162.407 117.701 162.241 117.857C162.079 118.013 161.883 118.091 161.654 118.091ZM164.4 129.864V119.364H165.534V120.577H165.673C165.759 120.444 165.878 120.275 166.031 120.07C166.186 119.861 166.409 119.675 166.697 119.513C166.989 119.347 167.383 119.264 167.88 119.264C168.523 119.264 169.09 119.425 169.58 119.746C170.071 120.068 170.454 120.524 170.729 121.114C171.004 121.704 171.142 122.4 171.142 123.202C171.142 124.01 171.004 124.711 170.729 125.305C170.454 125.895 170.073 126.352 169.585 126.677C169.098 126.998 168.536 127.159 167.9 127.159C167.41 127.159 167.017 127.078 166.722 126.915C166.427 126.75 166.2 126.562 166.041 126.354C165.882 126.142 165.759 125.966 165.673 125.827H165.573V129.864H164.4ZM165.553 123.182C165.553 123.759 165.638 124.267 165.807 124.708C165.976 125.146 166.223 125.489 166.548 125.737C166.873 125.982 167.27 126.105 167.741 126.105C168.231 126.105 168.641 125.976 168.969 125.717C169.3 125.455 169.549 125.104 169.715 124.663C169.884 124.219 169.968 123.725 169.968 123.182C169.968 122.645 169.885 122.161 169.72 121.73C169.557 121.296 169.31 120.953 168.979 120.701C168.651 120.446 168.238 120.318 167.741 120.318C167.264 120.318 166.863 120.439 166.538 120.681C166.213 120.92 165.968 121.254 165.802 121.685C165.636 122.113 165.553 122.612 165.553 123.182ZM176.014 130.023C175.447 130.023 174.96 129.95 174.552 129.804C174.144 129.661 173.805 129.473 173.533 129.237C173.264 129.005 173.051 128.757 172.892 128.491L173.826 127.835C173.932 127.974 174.066 128.134 174.229 128.312C174.391 128.495 174.613 128.652 174.895 128.785C175.18 128.921 175.553 128.989 176.014 128.989C176.63 128.989 177.139 128.839 177.54 128.541C177.941 128.243 178.142 127.776 178.142 127.139V125.588H178.042C177.956 125.727 177.833 125.9 177.674 126.105C177.518 126.307 177.293 126.488 176.998 126.647C176.706 126.803 176.312 126.881 175.815 126.881C175.198 126.881 174.645 126.735 174.154 126.443C173.667 126.152 173.281 125.727 172.996 125.17C172.714 124.614 172.573 123.937 172.573 123.142C172.573 122.36 172.711 121.679 172.986 121.099C173.261 120.515 173.644 120.065 174.134 119.746C174.625 119.425 175.192 119.264 175.835 119.264C176.332 119.264 176.726 119.347 177.018 119.513C177.313 119.675 177.538 119.861 177.694 120.07C177.853 120.275 177.976 120.444 178.062 120.577H178.181V119.364H179.315V127.219C179.315 127.875 179.166 128.409 178.867 128.82C178.572 129.234 178.175 129.537 177.674 129.729C177.177 129.925 176.624 130.023 176.014 130.023ZM175.974 125.827C176.445 125.827 176.842 125.719 177.167 125.504C177.492 125.288 177.739 124.978 177.908 124.574C178.077 124.17 178.161 123.686 178.161 123.122C178.161 122.572 178.079 122.086 177.913 121.665C177.747 121.245 177.502 120.915 177.177 120.676C176.852 120.437 176.451 120.318 175.974 120.318C175.477 120.318 175.062 120.444 174.731 120.696C174.403 120.948 174.156 121.286 173.99 121.71C173.828 122.134 173.747 122.605 173.747 123.122C173.747 123.652 173.829 124.121 173.995 124.529C174.164 124.933 174.413 125.252 174.741 125.484C175.072 125.712 175.483 125.827 175.974 125.827ZM188.502 127.159C187.813 127.159 187.208 126.995 186.688 126.667C186.171 126.339 185.766 125.88 185.475 125.29C185.186 124.7 185.042 124.01 185.042 123.222C185.042 122.426 185.186 121.732 185.475 121.138C185.766 120.545 186.171 120.085 186.688 119.756C187.208 119.428 187.813 119.264 188.502 119.264C189.192 119.264 189.795 119.428 190.312 119.756C190.832 120.085 191.237 120.545 191.525 121.138C191.817 121.732 191.963 122.426 191.963 123.222C191.963 124.01 191.817 124.7 191.525 125.29C191.237 125.88 190.832 126.339 190.312 126.667C189.795 126.995 189.192 127.159 188.502 127.159ZM188.502 126.105C189.026 126.105 189.457 125.971 189.795 125.702C190.133 125.434 190.383 125.081 190.546 124.643C190.708 124.206 190.789 123.732 190.789 123.222C190.789 122.711 190.708 122.236 190.546 121.795C190.383 121.354 190.133 120.998 189.795 120.726C189.457 120.454 189.026 120.318 188.502 120.318C187.979 120.318 187.548 120.454 187.21 120.726C186.872 120.998 186.621 121.354 186.459 121.795C186.297 122.236 186.215 122.711 186.215 123.222C186.215 123.732 186.297 124.206 186.459 124.643C186.621 125.081 186.872 125.434 187.21 125.702C187.548 125.971 187.979 126.105 188.502 126.105ZM193.754 127V119.364H194.887V120.517H194.967C195.106 120.139 195.358 119.833 195.722 119.597C196.087 119.362 196.498 119.244 196.955 119.244C197.041 119.244 197.149 119.246 197.278 119.249C197.408 119.253 197.505 119.258 197.572 119.264V120.457C197.532 120.447 197.441 120.433 197.298 120.413C197.159 120.389 197.012 120.378 196.856 120.378C196.485 120.378 196.153 120.456 195.862 120.612C195.573 120.764 195.344 120.976 195.175 121.248C195.01 121.516 194.927 121.823 194.927 122.168V127H193.754ZM202.9 119.364H204.073V127.557C204.073 128.027 203.992 128.435 203.83 128.78C203.671 129.125 203.429 129.391 203.104 129.58C202.782 129.769 202.376 129.864 201.886 129.864C201.846 129.864 201.806 129.864 201.767 129.864C201.727 129.864 201.687 129.864 201.647 129.864V128.77C201.687 128.77 201.723 128.77 201.757 128.77C201.79 128.77 201.826 128.77 201.866 128.77C202.224 128.77 202.486 128.664 202.651 128.452C202.817 128.243 202.9 127.945 202.9 127.557V119.364ZM203.477 118.091C203.248 118.091 203.051 118.013 202.885 117.857C202.723 117.701 202.642 117.514 202.642 117.295C202.642 117.077 202.723 116.889 202.885 116.734C203.051 116.578 203.248 116.5 203.477 116.5C203.705 116.5 203.901 116.578 204.063 116.734C204.229 116.889 204.312 117.077 204.312 117.295C204.312 117.514 204.229 117.701 204.063 117.857C203.901 118.013 203.705 118.091 203.477 118.091ZM206.222 129.864V119.364H207.356V120.577H207.495C207.581 120.444 207.701 120.275 207.853 120.07C208.009 119.861 208.231 119.675 208.519 119.513C208.811 119.347 209.205 119.264 209.702 119.264C210.345 119.264 210.912 119.425 211.403 119.746C211.893 120.068 212.276 120.524 212.551 121.114C212.826 121.704 212.964 122.4 212.964 123.202C212.964 124.01 212.826 124.711 212.551 125.305C212.276 125.895 211.895 126.352 211.408 126.677C210.92 126.998 210.359 127.159 209.722 127.159C209.232 127.159 208.839 127.078 208.544 126.915C208.249 126.75 208.022 126.562 207.863 126.354C207.704 126.142 207.581 125.966 207.495 125.827H207.396V129.864H206.222ZM207.376 123.182C207.376 123.759 207.46 124.267 207.629 124.708C207.798 125.146 208.045 125.489 208.37 125.737C208.695 125.982 209.093 126.105 209.563 126.105C210.054 126.105 210.463 125.976 210.791 125.717C211.123 125.455 211.371 125.104 211.537 124.663C211.706 124.219 211.79 123.725 211.79 123.182C211.79 122.645 211.708 122.161 211.542 121.73C211.379 121.296 211.133 120.953 210.801 120.701C210.473 120.446 210.06 120.318 209.563 120.318C209.086 120.318 208.685 120.439 208.36 120.681C208.035 120.92 207.79 121.254 207.624 121.685C207.459 122.113 207.376 122.612 207.376 123.182ZM217.955 127.159C217.219 127.159 216.585 126.997 216.051 126.672C215.521 126.344 215.112 125.886 214.823 125.3C214.538 124.71 214.396 124.024 214.396 123.241C214.396 122.459 214.538 121.77 214.823 121.173C215.112 120.573 215.513 120.106 216.026 119.771C216.543 119.433 217.147 119.264 217.836 119.264C218.234 119.264 218.626 119.33 219.014 119.463C219.402 119.596 219.755 119.811 220.073 120.109C220.391 120.404 220.645 120.795 220.834 121.283C221.023 121.77 221.117 122.37 221.117 123.082V123.58H215.231V122.565H219.924C219.924 122.134 219.838 121.75 219.665 121.412C219.496 121.074 219.254 120.807 218.94 120.612C218.628 120.416 218.26 120.318 217.836 120.318C217.369 120.318 216.964 120.434 216.623 120.666C216.285 120.895 216.025 121.193 215.842 121.561C215.66 121.929 215.569 122.323 215.569 122.744V123.42C215.569 123.997 215.668 124.486 215.867 124.887C216.069 125.285 216.349 125.588 216.707 125.797C217.065 126.002 217.481 126.105 217.955 126.105C218.263 126.105 218.542 126.062 218.79 125.976C219.042 125.886 219.259 125.754 219.442 125.578C219.624 125.399 219.765 125.177 219.864 124.912L220.998 125.23C220.879 125.615 220.678 125.953 220.396 126.244C220.115 126.533 219.767 126.758 219.352 126.92C218.938 127.08 218.472 127.159 217.955 127.159ZM225.984 130.023C225.418 130.023 224.93 129.95 224.523 129.804C224.115 129.661 223.775 129.473 223.504 129.237C223.235 129.005 223.021 128.757 222.862 128.491L223.797 127.835C223.903 127.974 224.037 128.134 224.2 128.312C224.362 128.495 224.584 128.652 224.866 128.785C225.151 128.921 225.524 128.989 225.984 128.989C226.601 128.989 227.11 128.839 227.511 128.541C227.912 128.243 228.112 127.776 228.112 127.139V125.588H228.013C227.927 125.727 227.804 125.9 227.645 126.105C227.489 126.307 227.264 126.488 226.969 126.647C226.677 126.803 226.283 126.881 225.786 126.881C225.169 126.881 224.616 126.735 224.125 126.443C223.638 126.152 223.252 125.727 222.967 125.17C222.685 124.614 222.544 123.937 222.544 123.142C222.544 122.36 222.682 121.679 222.957 121.099C223.232 120.515 223.615 120.065 224.105 119.746C224.596 119.425 225.162 119.264 225.805 119.264C226.303 119.264 226.697 119.347 226.989 119.513C227.284 119.675 227.509 119.861 227.665 120.07C227.824 120.275 227.946 120.444 228.033 120.577H228.152V119.364H229.286V127.219C229.286 127.875 229.136 128.409 228.838 128.82C228.543 129.234 228.145 129.537 227.645 129.729C227.148 129.925 226.594 130.023 225.984 130.023ZM225.945 125.827C226.415 125.827 226.813 125.719 227.138 125.504C227.463 125.288 227.71 124.978 227.879 124.574C228.048 124.17 228.132 123.686 228.132 123.122C228.132 122.572 228.049 122.086 227.884 121.665C227.718 121.245 227.473 120.915 227.148 120.676C226.823 120.437 226.422 120.318 225.945 120.318C225.447 120.318 225.033 120.444 224.702 120.696C224.374 120.948 224.127 121.286 223.961 121.71C223.799 122.134 223.717 122.605 223.717 123.122C223.717 123.652 223.8 124.121 223.966 124.529C224.135 124.933 224.384 125.252 224.712 125.484C225.043 125.712 225.454 125.827 225.945 125.827Z" fill="#727272"/>
</svg>
