<svg width="428" height="299" viewBox="0 0 428 299" fill="none" xmlns="http://www.w3.org/2000/svg">
    <path fill-rule="evenodd" clip-rule="evenodd" d="M0 0L14.2667 39.8667C28.5333 79.7333 57.0667 159.467 85.6 164.45C114.133 169.433 142.667 99.6667 171.2 109.633C199.733 119.6 228.267 209.3 256.8 224.25C285.333 239.2 313.867 179.4 342.4 154.483C370.933 129.567 399.467 139.533 413.733 144.517L428 149.5V299H413.733C399.467 299 370.933 299 342.4 299C313.867 299 285.333 299 256.8 299C228.267 299 199.733 299 171.2 299C142.667 299 114.133 299 85.6 299C57.0667 299 28.5333 299 14.2667 299H0V0Z" fill="#0077B6"/>
    <path fill-rule="evenodd" clip-rule="evenodd" d="M0 0L11.77 6.22917C23.8967 12.4583 47.4367 24.9167 71.3333 49.8333C95.23 74.75 118.77 112.125 142.667 112.125C166.563 112.125 190.103 74.75 214 87.2083C237.897 99.6667 261.437 161.958 285.333 186.875C309.23 211.792 332.77 199.333 356.667 199.333C380.563 199.333 404.103 211.792 416.23 218.021L428 224.25V299H416.23C404.103 299 380.563 299 356.667 299C332.77 299 309.23 299 285.333 299C261.437 299 237.897 299 214 299C190.103 299 166.563 299 142.667 299C118.77 299 95.23 299 71.3333 299C47.4367 299 23.8967 299 11.77 299H0V0Z" fill="#023E8A" fill-opacity="0.5"/>
</svg>
